<?xml version="1.0" encoding="UTF-8"?>
<svg width="162px" height="76px" viewBox="0 0 162 76" version="1.1" xmlns="http://www.w3.org/2000/svg" xmlns:xlink="http://www.w3.org/1999/xlink">
    <!-- Generator: Sketch 49.3 (51167) - http://www.bohemiancoding.com/sketch -->
    <title>MLflow-logo-byDB-TM</title>
    <desc>Created with Sketch.</desc>
    <defs>
        <polygon id="path-1" points="0 0.6567 34.6279 0.6567 34.6279 24.3887 0 24.3887"></polygon>
        <polygon id="path-3" points="0 76.3945 161.387 76.3945 161.387 0.9995 0 0.9995"></polygon>
    </defs>
    <g id="Page-1" stroke="none" stroke-width="1" fill="none" fill-rule="evenodd">
        <g id="Mlfloworg-v5" transform="translate(-233.000000, -13.000000)">
            <g id="MLflow-logo-byDB-TM" transform="translate(233.000000, 12.000000)">
                <g id="Group-3" transform="translate(0.000000, 22.394500)">
                    <mask id="mask-2" fill="white">
                        <use xlink:href="#path-1"></use>
                    </mask>
                    <g id="Clip-2"></g>
                    <path d="M-0.0001,24.3887 L-0.0001,1.3197 L5.2589,1.3197 L5.2589,4.2557 C6.5849,1.8877 9.4749,0.6567 12.0799,0.6567 C15.1109,0.6567 17.7649,2.0297 18.9959,4.7297 C20.7959,1.6977 23.4959,0.6567 26.4799,0.6567 C30.6489,0.6567 34.6279,3.3087 34.6279,9.4197 L34.6279,24.3887 L29.3219,24.3887 L29.3219,10.3197 C29.3219,7.6187 27.9479,5.5827 24.8699,5.5827 C21.9799,5.5827 20.0849,7.8557 20.0849,10.6987 L20.0849,24.3887 L14.6849,24.3887 L14.6849,10.3197 C14.6849,7.6667 13.3579,5.5827 10.2319,5.5827 C7.2949,5.5827 5.4479,7.7617 5.4479,10.6987 L5.4479,24.3887 L-0.0001,24.3887 Z" id="Fill-1" fill="#FFFFFF" mask="url(#mask-2)"></path>
                </g>
                <mask id="mask-4" fill="white">
                    <use xlink:href="#path-3"></use>
                </mask>
                <g id="Clip-5"></g>
                <polygon id="Fill-4" fill="#FFFFFF" mask="url(#mask-4)" points="41.351 46.7835 46.846 46.7835 46.846 12.4875 41.351 12.4875"></polygon>
                <path d="M44.6395,59.3344 C45.8755,59.6774 46.9875,59.8914 49.3435,59.8914 C53.7285,59.8914 58.8995,57.4184 60.2615,50.4804 L65.8795,22.6624 L74.2375,22.6624 L75.2545,18.0324 L66.8145,18.0324 L67.9375,12.5034 C68.8075,8.2104 71.1815,6.0334 74.9935,6.0334 C75.9865,6.0334 75.7085,6.1194 76.5915,6.2884 L77.8135,1.5474 C76.6515,1.2114 75.5955,1.0004 73.3105,1.0004 C70.7765,1.0004 68.4515,1.7614 66.5855,3.2024 C64.4485,4.8554 63.0355,7.2834 62.3915,10.4204 L60.8085,18.0324 L53.3275,18.0324 L52.7175,22.6624 L59.8765,22.6624 L54.7175,48.3854 C54.1585,51.3024 52.4895,54.7904 47.7285,54.7904 C46.6495,54.7904 47.0395,54.7094 46.0645,54.5494 L44.6395,59.3344 Z" id="Fill-6" fill="#0194E2" mask="url(#mask-4)"></path>
                <path d="M106.5966,25.1753 C103.7126,23.1183 100.0396,22.4723 96.6386,23.3983 C91.6016,24.8333 87.9376,29.4953 88.0016,34.9863 C88.0346,37.6873 88.9696,40.1613 90.5106,42.1393 L94.1086,39.4973 C93.1006,38.2463 92.4866,36.6643 92.4656,34.9333 C92.4166,30.8233 95.7076,27.4543 99.8176,27.4053 L99.7316,30.2173 L106.5966,25.1753 Z" id="Fill-7" fill="#43C9ED" mask="url(#mask-4)"></path>
                <polygon id="Fill-8" fill="#0194E2" mask="url(#mask-4)" points="79.1864 46.5937 73.6904 46.5937 81.2214 11.9907 86.7164 11.9907"></polygon>
                <path d="M109.2587,27.8003 C109.1377,27.6353 109.0137,27.4743 108.8847,27.3173 L105.4197,29.8623 C106.5947,31.1593 107.3227,32.8693 107.3457,34.7583 C107.3947,38.8643 104.1017,42.2373 99.9937,42.2853 L100.0797,39.4743 L93.1367,44.5733 C97.1537,47.2853 102.6017,47.3373 106.7317,44.3033 C111.9877,40.4443 113.1177,33.0553 109.2587,27.8003" id="Fill-9" fill="#0194E2" mask="url(#mask-4)"></path>
                <polygon id="Fill-10" fill="#0194E2" mask="url(#mask-4)" points="115.9257 23.7138 121.9307 23.7138 123.1517 39.4698 131.6997 23.7138 137.3997 23.7968 139.6387 39.4698 147.1697 23.7138 152.6647 23.7968 141.2667 46.7968 135.7717 46.7968 133.1247 30.3098 124.3727 46.7968 118.6737 46.7968"></polygon>
                <polygon id="Fill-11" fill="#0194E2" mask="url(#mask-4)" points="155.9901 24.1235 154.8581 24.1235 154.8581 23.7205 157.5971 23.7205 157.5971 24.1235 156.4671 24.1235 156.4671 27.4615 155.9901 27.4615"></polygon>
                <path d="M158.2675,23.7207 L158.8405,23.7207 L159.5575,25.7197 C159.6475,25.9747 159.7335,26.2397 159.8235,26.4987 L159.8465,26.4987 C159.9365,26.2397 160.0155,25.9747 160.1045,25.7197 L160.8135,23.7207 L161.3865,23.7207 L161.3865,27.4617 L160.9445,27.4617 L160.9445,25.4017 C160.9445,25.0757 160.9815,24.6257 161.0045,24.2957 L160.9815,24.2957 L160.6845,25.1487 L159.9805,27.0837 L159.6645,27.0837 L158.9565,25.1487 L158.6605,24.2957 L158.6375,24.2957 C158.6625,24.6257 158.6985,25.0757 158.6985,25.4017 L158.6985,27.4617 L158.2675,27.4617 L158.2675,23.7207 Z" id="Fill-12" fill="#0194E2" mask="url(#mask-4)"></path>
                <path d="M29.6219,69.8427 C28.8059,69.8427 28.1769,70.4497 28.1769,71.5187 C28.1769,72.5777 28.8059,73.2177 29.6219,73.2177 C30.4599,73.2177 31.0659,72.5777 31.0659,71.5187 C31.0659,70.4497 30.4709,69.8427 29.6219,69.8427 Z M26.9309,74.2217 L26.9309,66.2367 L28.1869,66.2367 L28.1869,69.5117 C28.4309,69.0927 29.0489,68.7067 29.8749,68.7067 C31.4859,68.7067 32.3569,69.9307 32.3569,71.5087 C32.3569,73.1297 31.3979,74.3537 29.8319,74.3537 C29.0709,74.3537 28.4859,74.0237 28.1769,73.5047 L28.1769,74.2217 L26.9309,74.2217 Z" id="Fill-13" fill="#FFFFFF" mask="url(#mask-4)"></path>
                <polygon id="Fill-14" fill="#FFFFFF" mask="url(#mask-4)" points="33.8866 76.3945 35.1776 73.5815 32.8836 68.8505 34.3276 68.8505 35.8716 72.2475 37.3166 68.8505 38.6736 68.8505 35.2536 76.3945"></polygon>
                <polygon id="Fill-15" fill="#D82128" mask="url(#mask-4)" points="42.5682 71.3628 42.5682 73.2508 48.2192 76.2038 53.8712 73.2508 53.8712 71.3628 51.8812 70.3388 53.8712 69.2998 53.8712 67.4268 53.8562 67.4198 48.2192 64.5188 42.5832 67.4198 42.5682 67.4268 42.5682 69.2998 44.5572 70.3388"></polygon>
                <polygon id="Fill-16" fill="#F0592C" mask="url(#mask-4)" points="51.8817 70.3388 48.2197 72.2528 44.5577 70.3388 42.5687 71.3628 48.2197 74.3168 53.8707 71.3628"></polygon>
                <polygon id="Fill-17" fill="#F0592C" mask="url(#mask-4)" points="48.2196 64.519 53.8706 67.427 48.2196 70.381 42.5686 67.427"></polygon>
                <path d="M61.951,72.9609 L61.951,69.5429 C61.739,69.2169 61.088,68.4519 59.672,68.4519 C58.451,68.4519 57.117,69.3479 57.117,71.3329 C57.117,73.3029 58.321,74.2309 59.688,74.2309 C60.599,74.2309 61.527,73.7909 61.951,72.9609 M61.951,68.4689 L62,68.4689 C62,68.4689 61.951,67.9809 61.951,67.9149 L61.951,64.0089 L60.779,64.0089 L60.779,62.9999 L63.172,62.9999 L63.172,74.1329 L64.295,74.1329 L64.295,75.1419 L62.244,75.1419 L62.064,74.0029 L62,74.0029 C62,74.0029 61.251,75.2549 59.412,75.2549 C57.41,75.2549 55.896,73.9049 55.896,71.3329 C55.896,68.8269 57.523,67.4269 59.428,67.4269 C61.365,67.4269 61.951,68.4689 61.951,68.4689" id="Fill-18" fill="#FFFFFF" mask="url(#mask-4)"></path>
                <path d="M70.3817,71.789 L68.5417,71.789 C67.2077,71.789 66.1977,72.18 66.1977,73.059 C66.1977,73.807 66.8987,74.295 67.8747,74.295 C69.6327,74.295 70.3817,72.977 70.3817,72.977 L70.3817,71.789 Z M70.5117,73.872 C70.5117,73.872 69.8447,75.255 67.6137,75.255 C66.0517,75.255 64.9937,74.328 64.9937,73.059 C64.9937,71.643 66.3287,70.91 68.4607,70.91 L70.3817,70.91 L70.3817,70.275 C70.3817,68.973 69.6327,68.42 68.2487,68.42 C66.9307,68.42 66.2637,69.055 66.2637,69.901 L66.2637,70.063 L65.1407,70.063 L65.1407,69.689 C65.1407,68.582 66.1167,67.427 68.2817,67.427 C70.3327,67.427 71.6027,68.338 71.6027,70.324 L71.6027,74.133 L72.5137,74.133 L72.5137,75.142 L70.6907,75.142 L70.5437,73.872 L70.5117,73.872 Z" id="Fill-19" fill="#FFFFFF" mask="url(#mask-4)"></path>
                <path d="M75.0526,65.5063 L75.0526,67.5413 L77.4606,67.5413 L77.4606,68.5173 L75.0526,68.5173 L75.0526,72.6193 C75.0526,73.6933 75.5246,74.2143 76.3226,74.2143 C77.1676,74.2143 77.6896,73.9693 77.6896,73.9693 L77.6896,74.9953 C77.6896,74.9953 77.0706,75.2553 76.1266,75.2553 C74.6616,75.2553 73.8316,74.4093 73.8316,72.6843 L73.8316,68.5173 L72.6756,68.5173 L72.6756,67.5413 L73.8316,67.5413 L74.0426,65.5063 L75.0526,65.5063 Z" id="Fill-20" fill="#FFFFFF" mask="url(#mask-4)"></path>
                <path d="M83.7753,71.789 L81.9363,71.789 C80.6023,71.789 79.5923,72.18 79.5923,73.059 C79.5923,73.807 80.2933,74.295 81.2693,74.295 C83.0273,74.295 83.7753,72.977 83.7753,72.977 L83.7753,71.789 Z M83.9063,73.872 C83.9063,73.872 83.2383,75.255 81.0083,75.255 C79.4463,75.255 78.3883,74.328 78.3883,73.059 C78.3883,71.643 79.7233,70.91 81.8553,70.91 L83.7753,70.91 L83.7753,70.275 C83.7753,68.973 83.0273,68.42 81.6433,68.42 C80.3253,68.42 79.6583,69.055 79.6583,69.901 L79.6583,70.063 L78.5353,70.063 L78.5353,69.689 C78.5353,68.582 79.5113,67.427 81.6763,67.427 C83.7263,67.427 84.9963,68.338 84.9963,70.324 L84.9963,74.133 L85.9083,74.133 L85.9083,75.142 L84.0853,75.142 L83.9383,73.872 L83.9063,73.872 Z" id="Fill-21" fill="#FFFFFF" mask="url(#mask-4)"></path>
                <path d="M88.2509,69.5429 L88.2509,72.9609 C88.6579,73.7909 89.6029,74.2299 90.5299,74.2299 C91.8809,74.2299 93.0849,73.3029 93.0849,71.3329 C93.0849,69.3479 91.7669,68.4519 90.5459,68.4519 C89.1469,68.4519 88.4799,69.2009 88.2509,69.5429 Z M88.1529,74.0019 L87.9579,75.1419 L87.0309,75.1419 L87.0309,64.0089 L85.9079,64.0089 L85.9079,62.9999 L88.2509,62.9999 L88.2509,67.9149 C88.2509,67.9809 88.2019,68.4689 88.2019,68.4689 L88.2509,68.4689 C88.2509,68.4689 88.9349,67.4269 90.7899,67.4269 C92.6789,67.4269 94.3059,68.8269 94.3059,71.3329 C94.3059,73.9049 92.7919,75.2549 90.8069,75.2549 C88.9679,75.2549 88.2019,74.0019 88.2019,74.0019 L88.1529,74.0019 Z" id="Fill-22" fill="#FFFFFF" mask="url(#mask-4)"></path>
                <path d="M100.2538,68.664 C100.0748,68.599 99.7818,68.55 99.3918,68.55 C97.5028,68.55 97.1118,70.796 97.1118,70.796 L97.1118,74.133 L98.3498,74.133 L98.3498,75.142 L94.7688,75.142 L94.7688,74.133 L95.8918,74.133 L95.8918,68.55 L94.7688,68.55 L94.7688,67.541 L96.8188,67.541 L96.9338,69.477 L96.9828,69.477 C96.9828,69.477 97.3568,67.427 99.4238,67.427 C99.7658,67.427 100.0588,67.476 100.2538,67.508 L100.2538,68.664 Z" id="Fill-23" fill="#FFFFFF" mask="url(#mask-4)"></path>
                <path d="M103.037,66.1621 C102.516,66.1621 102.093,65.7391 102.093,65.1851 C102.093,64.6641 102.516,64.2421 103.037,64.2421 C103.574,64.2421 104.014,64.6641 104.014,65.1851 C104.014,65.7391 103.574,66.1621 103.037,66.1621 Z M103.704,74.1331 L104.795,74.1331 L104.795,75.1411 L101.36,75.1411 L101.36,74.1331 L102.483,74.1331 L102.483,68.5501 L101.36,68.5501 L101.36,67.5411 L103.704,67.5411 L103.704,74.1331 Z" id="Fill-24" fill="#FFFFFF" mask="url(#mask-4)"></path>
                <path d="M106.3807,71.333 C106.3807,73.319 107.6657,74.23 109.1147,74.23 C110.8887,74.23 111.6057,73.4 111.6057,73.4 L112.0277,74.279 C112.0277,74.279 111.1817,75.255 109.0327,75.255 C106.7717,75.255 105.1757,73.856 105.1757,71.333 C105.1757,68.696 106.6247,67.427 108.9517,67.427 C111.3277,67.427 112.1917,68.729 112.1917,70.145 L112.1917,70.552 L111.0677,70.552 L111.0677,70.308 C111.0677,69.168 110.4167,68.452 108.9357,68.452 C107.4057,68.452 106.3807,69.217 106.3807,71.333" id="Fill-25" fill="#FFFFFF" mask="url(#mask-4)"></path>
                <polygon id="Fill-26" fill="#FFFFFF" mask="url(#mask-4)" points="115.0087 70.7148 116.8967 70.7148 118.7197 68.5178 117.7757 68.5178 117.7757 67.5408 121.2097 67.5408 121.2097 68.5178 120.0377 68.5178 117.8237 71.2028 120.1517 74.1648 121.3077 74.1648 121.3077 75.1418 119.4677 75.1418 116.7987 71.6748 115.0087 71.6748 115.0087 74.1328 116.0987 74.1328 116.0987 75.1418 112.6487 75.1418 112.6487 74.1328 113.7877 74.1328 113.7877 64.0088 112.6487 64.0088 112.6487 62.9998 115.0087 62.9998"></polygon>
                <path d="M122.9921,72.6679 L122.9921,72.8469 C122.9921,73.6279 123.6431,74.2469 125.0261,74.2469 C126.4271,74.2469 127.0451,73.7909 127.0451,73.0419 C127.0451,72.2609 126.0361,72.0009 124.9451,71.8049 C123.5781,71.5609 122.0481,71.2029 122.0481,69.5589 C122.0481,68.2569 123.2851,67.4269 124.9771,67.4269 C127.2231,67.4269 128.0541,68.3549 128.0541,69.5099 L128.0541,70.0639 L126.9151,70.0639 L126.9151,69.7059 C126.9151,68.8919 126.3781,68.4199 125.0261,68.4199 C124.1471,68.4199 123.2531,68.7779 123.2531,69.5749 C123.2531,70.4709 124.3271,70.6329 125.4331,70.8449 C126.8661,71.1219 128.2491,71.5609 128.2491,73.0589 C128.2491,74.2789 127.3381,75.2549 125.0591,75.2549 C122.7161,75.2549 121.8521,74.2139 121.8521,73.1399 L121.8521,72.6679 L122.9921,72.6679 Z" id="Fill-27" fill="#FFFFFF" mask="url(#mask-4)"></path>
                <path d="M129.1024,68.1264 C129.1284,68.1264 129.1544,68.1254 129.1774,68.1244 C129.2024,68.1224 129.2224,68.1174 129.2414,68.1084 C129.2594,68.1014 129.2744,68.0884 129.2854,68.0714 C129.2954,68.0554 129.3014,68.0314 129.3014,68.0014 C129.3014,67.9764 129.2964,67.9564 129.2874,67.9414 C129.2774,67.9264 129.2644,67.9144 129.2484,67.9064 C129.2334,67.8984 129.2154,67.8934 129.1954,67.8904 C129.1744,67.8874 129.1554,67.8854 129.1354,67.8854 L128.9794,67.8854 L128.9794,68.1264 L129.1024,68.1264 Z M129.1544,67.7904 C129.2454,67.7904 129.3114,67.8084 129.3544,67.8444 C129.3984,67.8804 129.4194,67.9344 129.4194,68.0064 C129.4194,68.0754 129.4004,68.1254 129.3624,68.1564 C129.3244,68.1884 129.2774,68.2074 129.2204,68.2124 L129.4364,68.5474 L129.3104,68.5474 L129.1044,68.2214 L128.9794,68.2214 L128.9794,68.5474 L128.8624,68.5474 L128.8624,67.7904 L129.1544,67.7904 Z M128.6204,68.3874 C128.6474,68.4544 128.6844,68.5134 128.7334,68.5634 C128.7814,68.6124 128.8374,68.6514 128.9024,68.6794 C128.9674,68.7084 129.0394,68.7224 129.1154,68.7224 C129.1894,68.7224 129.2594,68.7084 129.3244,68.6794 C129.3884,68.6514 129.4454,68.6124 129.4934,68.5634 C129.5404,68.5134 129.5794,68.4544 129.6054,68.3874 C129.6324,68.3194 129.6464,68.2464 129.6464,68.1664 C129.6464,68.0884 129.6324,68.0164 129.6054,67.9504 C129.5794,67.8824 129.5404,67.8244 129.4934,67.7754 C129.4454,67.7274 129.3884,67.6884 129.3244,67.6594 C129.2594,67.6314 129.1894,67.6174 129.1154,67.6174 C129.0394,67.6174 128.9674,67.6314 128.9024,67.6594 C128.8374,67.6884 128.7814,67.7274 128.7334,67.7754 C128.6844,67.8244 128.6474,67.8824 128.6204,67.9504 C128.5934,68.0164 128.5804,68.0884 128.5804,68.1664 C128.5804,68.2464 128.5934,68.3194 128.6204,68.3874 Z M128.5134,67.9114 C128.5484,67.8334 128.5954,67.7654 128.6554,67.7074 C128.7144,67.6494 128.7834,67.6044 128.8634,67.5714 C128.9414,67.5384 129.0254,67.5224 129.1154,67.5224 C129.2044,67.5224 129.2874,67.5384 129.3664,67.5714 C129.4444,67.6044 129.5124,67.6494 129.5724,67.7074 C129.6304,67.7654 129.6774,67.8334 129.7114,67.9114 C129.7474,67.9904 129.7644,68.0754 129.7644,68.1664 C129.7644,68.2594 129.7474,68.3464 129.7114,68.4254 C129.6774,68.5034 129.6304,68.5724 129.5724,68.6314 C129.5124,68.6894 129.4444,68.7344 129.3664,68.7674 C129.2874,68.7994 129.2044,68.8154 129.1154,68.8154 C129.0254,68.8154 128.9414,68.7994 128.8634,68.7674 C128.7834,68.7344 128.7144,68.6894 128.6554,68.6314 C128.5954,68.5724 128.5484,68.5034 128.5134,68.4254 C128.4794,68.3464 128.4614,68.2594 128.4614,68.1664 C128.4614,68.0754 128.4794,67.9904 128.5134,67.9114 Z" id="Fill-28" fill="#FFFFFF" mask="url(#mask-4)"></path>
            </g>
        </g>
    </g>
</svg>