<?xml version="1.0" encoding="UTF-8"?>
<svg width="158px" height="82px" viewBox="0 0 158 82" version="1.1" xmlns="http://www.w3.org/2000/svg" xmlns:xlink="http://www.w3.org/1999/xlink">
    <!-- Generator: Sketch 49.3 (51167) - http://www.bohemiancoding.com/sketch -->
    <title>Spark-logo@2x</title>
    <desc>Created with Sketch.</desc>
    <defs>
        <polygon id="path-1" points="0.0852215294 0.0508259938 57.7840455 0.0508259938 57.7840455 47.7467628 0.0852215294 47.7467628"></polygon>
    </defs>
    <g id="Page-1" stroke="none" stroke-width="1" fill="none" fill-rule="evenodd">
        <g id="Mlfloworg-v5" transform="translate(-1014.000000, -553.000000)">
            <g id="Spark-logo" transform="translate(1014.000000, 553.000000)">
                <g id="Page-1">
                    <g id="Group-3" transform="translate(99.383315, 0.000000)">
                        <mask id="mask-2" fill="white">
                            <use xlink:href="#path-1"></use>
                        </mask>
                        <g id="Clip-2"></g>
                        <path d="M44.4865427,40.2743271 C44.3514118,39.9915384 44.2911226,39.8488656 44.2178401,39.7118179 C42.2631199,36.0611334 40.3130773,32.4068693 38.3406861,28.7648781 C38.1421476,28.3982244 38.1660554,28.1814026 38.4383961,27.868443 C41.5474459,24.3000894 44.640384,20.7174173 47.7364405,17.1383249 C47.8450649,17.0125274 47.9432947,16.8785479 47.9843537,16.6550784 C47.0789767,16.8872412 46.1730801,17.1173586 45.2697821,17.3531011 C41.5126237,18.3303329 37.7549456,19.3055193 34.0019452,20.2975809 C33.6516443,20.3896279 33.4931254,20.2883762 33.3195342,20.003542 C31.1860254,16.5032009 29.0416022,13.0095076 26.8982185,9.51479149 C26.7875151,9.33325444 26.668496,9.15683111 26.4330564,9.00444226 C26.2610244,9.93667337 26.0853542,10.8683931 25.9164406,11.801647 C25.3187463,15.0964166 24.7241704,18.3906748 24.1290748,21.6849331 C24.0646278,22.0413594 23.9757532,22.3947174 23.9445692,22.7531891 C23.9149443,23.0937629 23.7366755,23.219049 23.4237955,23.3151869 C18.9966998,24.6815729 14.573762,26.0597203 10.1508242,27.4378678 C9.95644362,27.4982097 9.76674065,27.5754269 9.55832725,27.7620776 C13.1767166,29.1749984 16.7956256,30.5879191 20.4691068,32.0223175 C20.3355351,32.1266374 20.2482197,32.2069228 20.1510294,32.2698216 C17.8886266,33.7077996 15.6236251,35.1401525 13.3658998,36.5852897 C13.0966775,36.7586448 12.8815076,36.7826792 12.5785025,36.6486998 C9.87640456,35.4526007 7.16391191,34.2800248 4.45765606,33.0931304 C3.24355703,32.5597695 2.15003633,31.8515193 1.29923149,30.8287753 C-0.624824424,28.5168627 -0.244898743,25.8848311 2.3184302,24.2786117 C3.15728116,23.75241 4.10943417,23.3576308 5.0605477,23.0533645 C9.39565045,21.665501 13.7484242,20.3267291 18.0991189,18.9843777 C18.4634526,18.8718759 18.6328859,18.7118164 18.7009711,18.3236851 C19.279955,15.0263586 19.8812874,11.7326117 20.4857383,8.43937623 C20.8090129,6.67974527 20.9810449,4.87306809 21.8536786,3.26020088 C22.1883874,2.63990668 22.5901419,2.0318854 23.0672579,1.5118201 C24.7938148,-0.370540132 27.2033024,-0.444177696 29.0301681,1.35022656 C29.6460531,1.95569098 30.1761819,2.67058899 30.6340677,3.40236229 C32.6464785,6.62502847 34.6245867,9.86763815 36.59282,13.117407 C36.8256609,13.5014474 37.0361533,13.5781532 37.4659734,13.4646286 C42.317692,12.1872214 47.1735683,10.9292464 52.0294447,9.66871445 C53.0304528,9.40893749 54.0439344,9.31331093 55.0709291,9.50251856 C57.3104637,9.914173 58.2880837,11.5878935 57.5313507,13.7121326 C57.1857275,14.6801598 56.5916713,15.4973322 55.9227734,16.2700153 C52.5351461,20.1845677 49.1521963,24.1042339 45.7526151,28.0095817 C45.4740376,28.3286778 45.4683205,28.5593065 45.6606222,28.9157328 C47.6886249,32.6717599 49.6989567,36.4369918 51.7176042,40.1981326 C52.2004373,41.0986587 52.5684091,42.0329353 52.5793235,43.066418 C52.603751,45.4182178 50.8532863,47.3419991 48.4749827,47.6846183 C47.142904,47.8763828 45.9048972,47.5971737 44.6575352,47.2182471 C41.6160508,46.2941979 38.5688494,45.3865127 35.5200887,44.4854753 C35.2383928,44.4021216 35.1302881,44.2942222 35.0798739,43.9950696 C34.7300928,41.8871943 34.3465289,39.7839213 33.9769979,37.6791143 C33.9666033,37.6213293 33.9842742,37.5584305 33.9931097,37.4300762 C37.462855,38.3699778 40.904015,39.3032317 44.4865427,40.2743271" id="Fill-1" fill="#FFFFFF" mask="url(#mask-2)"></path>
                    </g>
                    <path d="M125.327316,53.0704904 C125.212838,53.1846687 125.102721,53.3014071 124.971889,53.4360658 C125.055839,53.5620203 125.127252,53.6828547 125.212293,53.795497 C129.751075,59.7711689 134.291493,65.7468408 138.834092,71.7194406 C138.916407,71.8274747 139.035246,71.9124684 139.136641,72.0087264 L139.136641,72.1034483 C136.259426,72.0983282 133.382211,72.0865519 130.50445,72.0962801 C130.125037,72.0978162 129.909164,71.9938781 129.698197,71.69128 C126.291657,66.8251344 122.869853,61.9682049 119.45132,57.1097395 C119.342293,56.9551124 119.22618,56.8056054 119.032112,56.5455042 C118.296727,61.7936094 117.577151,66.9234404 116.855939,72.0681196 L109.321647,72.0681196 C109.409413,71.3789537 109.486822,70.7133404 109.579495,70.0502871 C110.315425,64.7811894 111.053536,59.5126037 111.791647,54.244018 C112.49705,49.209933 113.200273,44.175848 113.915488,39.142787 C113.936748,38.992768 114.04414,38.8028122 114.174426,38.7234506 C116.767082,37.1377548 119.36846,35.5658833 121.969838,33.9929877 C122.007997,33.9694353 122.06033,33.9668752 122.194433,33.9310345 C121.40835,39.5600754 120.627173,45.1450835 119.845997,50.7300915 C119.87707,50.7500599 119.908142,50.7700283 119.938125,50.7899967 C124.020085,46.5469676 128.102046,42.3034264 132.271228,37.9687475 C132.392248,38.6210486 132.495823,39.1796518 132.598853,39.738255 C132.8905,41.3387991 133.171789,42.9408792 133.48415,44.5373273 C133.547931,44.8588697 133.456894,45.0595777 133.227938,45.2833262 C130.588401,47.8740982 127.959221,50.4735743 125.327316,53.0704904" id="Fill-4" fill="#FEFEFE"></path>
                    <path d="M51.5115107,57.4766678 C51.3991746,56.9227425 51.3191616,56.1073273 51.0664054,55.3470984 C49.8397166,51.6681886 45.9567031,49.6515704 41.9375087,50.5608537 C37.5283172,51.5578161 34.3776079,54.9267547 33.9219049,59.2993605 C33.5843667,62.5347175 35.3764453,65.6509342 38.7078461,66.8206758 C41.3927846,67.7629678 43.9770445,67.368412 46.3769037,65.9701891 C49.5572867,64.1150035 51.2831293,61.3613655 51.5115107,57.4766678 M32.1494322,71.1494422 C31.9316485,72.7312754 31.7244627,74.2228508 31.5225756,75.7149419 C31.2544527,77.6985515 30.9873895,79.6831926 30.7298644,81.6678337 C30.7001907,81.8999253 30.6275961,82.0015299 30.3711307,81.9999826 C28.3602088,81.9917305 26.3482271,81.9937935 24.3362453,81.9906989 C24.2901452,81.9906989 24.2451047,81.9664583 24.135948,81.9365442 C24.257822,80.9999257 24.3759869,80.0607283 24.5021,79.1225625 C24.9461455,75.8320192 25.3891312,72.541476 25.8395353,69.2514486 C26.3545857,65.4895015 26.762069,61.7089872 27.4223084,57.9717966 C28.5901798,51.3535755 34.36754,45.6497953 41.1458572,44.2293947 C45.0755007,43.4062432 48.8361102,43.7873892 52.2671298,45.9365574 C55.6891414,48.0800523 57.6513137,51.1905956 58.0990684,55.1026286 C58.7312239,60.6356924 56.6365797,65.2274959 52.5940703,69.0276091 C49.9403951,71.5213045 46.7637213,73.106748 43.0995513,73.6426218 C39.324105,74.1949998 35.7765101,73.5833095 32.591888,71.4202157 C32.474253,71.3413046 32.3497296,71.2716771 32.1494322,71.1494422" id="Fill-6" fill="#FEFEFE"></path>
                    <path d="M29.8149946,40.154367 C27.5730915,41.8046331 25.4117452,43.3970043 23.2414482,44.9945912 C22.8918419,44.4490229 22.5785652,43.9050192 22.2121104,43.3990906 C21.2707006,42.0972372 20.1007831,41.1244982 18.3996115,41.006622 C16.9853908,40.9085658 15.7749316,41.3691173 14.8119347,42.4013159 C13.9510818,43.3234621 13.8384075,44.6367902 14.6434497,45.6778556 C15.5295754,46.8253226 16.4988905,47.9138515 17.4892662,48.9752584 C19.1309416,50.7360986 20.8463291,52.4286123 22.4769477,54.1988408 C23.961195,55.8089456 25.1442754,57.6156845 25.5096771,59.8167347 C25.9440524,62.434524 25.4164839,64.9266136 24.1649565,67.2267633 C21.8493412,71.483344 18.2016417,73.9535274 13.3871837,74.7254597 C11.261114,75.0676135 9.14083601,74.9992871 7.06583833,74.3947806 C4.31268865,73.5931185 2.39617215,71.8077642 1.16359931,69.2864664 C0.728170969,68.3956148 0.394886643,67.4557351 0,66.5007296 C2.41038807,65.2239119 4.7518026,63.9846476 7.12796716,62.7266065 C7.21115661,62.9221975 7.2685468,63.0859723 7.34594459,63.2382725 C7.75136154,64.0404562 8.08306632,64.8927112 8.5843091,65.630741 C10.0727685,67.8192735 12.4768384,68.4853259 14.9156583,67.4040991 C15.5416852,67.1260991 16.1455985,66.733874 16.6589512,66.2827109 C18.2306,64.9026211 18.5249222,62.9821787 17.3618494,61.2458526 C16.6937012,60.2485995 15.8575945,59.3540969 15.0436015,58.4606374 C13.0991797,56.323741 11.075254,54.255171 9.17558603,52.0807212 C7.86614192,50.5817121 6.9768572,48.8333897 6.69464488,46.8253226 C6.38715982,44.6331391 6.83048589,42.5640476 7.98355489,40.7187121 C10.8504319,36.1309307 15.0172758,33.744721 20.5272607,33.9423983 C23.6695054,34.0550587 26.1709806,35.5081691 28.1132964,37.9225438 C28.6877248,38.6371028 29.2258237,39.3798269 29.8149946,40.154367" id="Fill-8" fill="#FEFEFE"></path>
                    <path d="M82.8810965,63.8389622 C82.5116211,66.5431814 82.1629086,69.1146657 81.8008866,71.6835973 C81.7822531,71.8137797 81.675776,71.9909298 81.5607807,72.0419817 C76.0750817,74.4746047 68.8527414,74.1351096 64.3482286,69.2366797 C61.928537,66.6049542 60.9127457,63.4821094 61.0644755,60.0070065 C61.4158499,51.963269 68.3799832,44.94108 76.7086203,43.960373 C81.5746228,43.3865497 85.8427565,44.6454895 89.1392868,48.2645588 C91.3848884,50.7303656 92.4230399,53.6760603 92.2697129,56.9250033 C92.1685597,59.0712252 91.8171853,61.2087683 91.5382154,63.3447798 C91.1437178,66.3721575 90.7108885,69.3939196 90.2934983,72.4182342 C90.2791239,72.5249326 90.255699,72.6321416 90.2312092,72.7679397 L83.6690269,72.7679397 C83.7568705,72.0731233 83.8356635,71.3926015 83.928831,70.7141217 C84.4037187,67.2221717 84.9259888,63.7348163 85.3428466,60.2357191 C85.6015859,58.0568239 85.4386759,55.8937549 84.3978625,53.8751627 C83.2910333,51.7309829 81.4346054,50.5960991 78.9936184,50.3479869 C73.941281,49.8359363 69.1343733,53.1971935 68.0562929,57.9593148 C67.3444936,61.1020698 68.466762,64.1146425 71.0802419,65.7799555 C73.6282384,67.4023849 76.3567135,67.4085111 79.1331034,66.3563315 C80.5407303,65.8223286 81.7401946,64.9784406 82.8810965,63.8389622" id="Fill-10" fill="#FEFEFE"></path>
                    <path d="M110.741408,43.8543781 C110.441915,46.1452638 110.148263,48.401789 109.847176,50.7060968 C108.463347,50.7060968 107.106068,50.6975067 105.750382,50.7087813 C104.650647,50.7168345 103.648618,51.4330383 103.317795,52.470299 C103.188227,52.8751098 103.140435,53.3083755 103.08521,53.7341249 C102.397012,58.9945183 101.713593,64.2554485 101.029644,69.5158419 C100.858126,70.8424833 100.689262,72.1696615 100.517213,73.5172414 L93.7042686,73.5172414 C93.8322436,72.5046774 93.9527844,71.5259371 94.0796974,70.5482706 C94.5225654,67.1390547 94.9654333,63.7303756 95.4146734,60.3222334 C95.8012536,57.3731274 96.1474764,54.4175787 96.6036198,51.4781366 C97.215351,47.5395526 101.097614,44.0417507 105.035103,43.8683371 C106.913309,43.7856569 108.798418,43.8543781 110.741408,43.8543781" id="Fill-12" fill="#FEFEFE"></path>
                    <path d="M145.675883,73.5172414 L145.675883,71.1563357 L145.660209,71.1563357 L144.550482,73.5172414 L144.195202,73.5172414 L143.085474,71.1563357 L143.069278,71.1563357 L143.069278,73.5172414 L142.508667,73.5172414 L142.508667,70.6896552 L143.372833,70.6896552 L144.384336,72.8379571 L145.380165,70.6896552 L146.23545,70.6896552 L146.23545,73.5172414 L145.675883,73.5172414 Z M140.757868,71.0677144 L140.757868,73.5172414 L140.198302,73.5172414 L140.198302,71.0677144 L139.136641,71.0677144 L139.136641,70.6896552 L141.81796,70.6896552 L141.81796,71.0677144 L140.757868,71.0677144 Z" id="Fill-14" fill="#FEFEFE"></path>
                    <path d="M38.8956138,33.8273514 L40.4323845,33.8273514 L40.0695694,31.6225969 L38.8956138,33.8273514 Z M40.6734561,35.2510453 L38.1168416,35.2510453 L37.3047348,36.7586207 L35.4940411,36.7586207 L39.4879058,29.6896552 L41.2333798,29.6896552 L42.5928494,36.7586207 L40.9150107,36.7586207 L40.6734561,35.2510453 Z" id="Fill-16" fill="#FEFEFE"></path>
                    <path d="M51.1353914,31.1135337 L50.0278551,31.1135337 L49.6547593,32.7455387 L50.7617081,32.7455387 C51.4291676,32.7455387 51.9638403,32.4030927 51.9638403,31.758084 C51.9638403,31.3317456 51.6289354,31.1135337 51.1353914,31.1135337 Z M48.4532146,29.6896552 L51.3627742,29.6896552 C52.8845349,29.6896552 53.9509425,30.3965517 53.9509425,31.6118453 C53.9509425,33.140704 52.5631437,34.1698757 50.5883801,34.1698757 L49.3345432,34.1698757 L48.7469908,36.7586207 L46.8521343,36.7586207 L48.4532146,29.6896552 Z" id="Fill-18" fill="#FEFEFE"></path>
                    <path d="M58.7722768,33.8273514 L60.3090476,33.8273514 L59.9462325,31.6225969 L58.7722768,33.8273514 Z M60.5501191,35.2510453 L57.9935046,35.2510453 L57.1813979,36.7586207 L55.3707042,36.7586207 L59.3645689,29.6896552 L61.1095597,29.6896552 L62.4695124,36.7586207 L60.7911907,36.7586207 L60.5501191,35.2510453 Z" id="Fill-20" fill="#FEFEFE"></path>
                    <path d="M71.173771,36.4056386 C70.5446018,36.6267519 69.8495691,36.7586207 69.1533809,36.7586207 C66.7926964,36.7586207 65.3090357,35.3986407 65.3090357,33.6967787 C65.3090357,31.5216099 67.6962967,29.6896552 70.5313135,29.6896552 C71.2396344,29.6896552 71.8832474,29.8201919 72.4078439,30.0413052 L72.1449679,31.6832269 C71.7515205,31.3506689 71.1211958,31.1193436 70.3343009,31.1193436 C68.7073583,31.1193436 67.26414,32.2475542 67.26414,33.5560299 C67.26414,34.5523717 68.0776114,35.3284883 69.3642595,35.3284883 C70.1511543,35.3284883 70.9120505,35.0971629 71.4233588,34.774373 L71.173771,36.4056386 Z" id="Fill-22" fill="#FEFEFE"></path>
                    <polygon id="Fill-24" fill="#FEFEFE" points="81.5960133 33.9103162 78.5941141 33.9103162 78.1068972 36.7586207 76.6671289 36.7586207 77.8836081 29.6896552 79.323823 29.6896552 78.8374993 32.486164 81.8389519 32.486164 82.3257222 29.6896552 83.7659371 29.6896552 82.5499045 36.7586207 81.1096895 36.7586207"></polygon>
                    <polygon id="Fill-26" fill="#FEFEFE" points="88.025222 36.7586207 89.7389226 29.6896552 95.1240303 29.6896552 94.7800324 31.1138998 91.4243236 31.1138998 91.0815835 32.4863453 94.1668735 32.4863453 93.8241333 33.9096731 90.7388434 33.9096731 90.3954744 35.3343761 93.7524409 35.3343761 93.4097008 36.7586207"></polygon>
                </g>
            </g>
        </g>
    </g>
</svg>